<svg xmlns="http://www.w3.org/2000/svg" viewBox="0 0 320 100" width="320" height="100">
  <rect width="320" height="100" fill="#f8fafc"/>
  <rect x="0" y="0" width="320" height="3" fill="#0369a1"/>
  <rect x="12" y="12" width="120" height="10" rx="2" fill="#0369a1" opacity="0.8"/>
  <rect x="12" y="28" width="80" height="6" rx="1" fill="#94a3b8"/>
  <rect x="12" y="40" width="60" height="5" rx="1" fill="#22c55e"/>
  <rect x="78" y="40" width="50" height="5" rx="1" fill="#f59e0b"/>
  <rect x="134" y="40" width="45" height="5" rx="1" fill="#dc2626"/>
  <rect x="12" y="55" width="296" height="1" fill="#e2e8f0"/>
  <rect x="12" y="64" width="18" height="18" rx="3" fill="#e0f2fe"/>
  <rect x="36" y="66" width="80" height="6" rx="1" fill="#0f172a"/>
  <rect x="36" y="76" width="140" height="5" rx="1" fill="#94a3b8"/>
  <rect x="12" y="88" width="18" height="18" rx="3" fill="#ede9fe"/>
  <rect x="36" y="90" width="60" height="6" rx="1" fill="#0f172a"/>
</svg>